<?xml version="1.0" encoding="UTF-8"?>
<!DOCTYPE svg PUBLIC "-//W3C//DTD SVG 1.1//EN" "http://www.w3.org/Graphics/SVG/1.1/DTD/svg11.dtd">
<!-- Creator: CorelDRAW X7 -->
<svg xmlns="http://www.w3.org/2000/svg" xml:space="preserve" width="1000mm" height="1000mm" version="1.1" style="shape-rendering:geometricPrecision; text-rendering:geometricPrecision; image-rendering:optimizeQuality; fill-rule:evenodd; clip-rule:evenodd"
viewBox="0 0 100000 100000"
 xmlns:xlink="http://www.w3.org/1999/xlink"
 xmlns:dc="http://purl.org/dc/elements/1.1/"
 xmlns:cc="http://creativecommons.org/ns#"
 xmlns:rdf="http://www.w3.org/1999/02/22-rdf-syntax-ns#"
 xmlns:svg="http://www.w3.org/2000/svg"
 xmlns:sodipodi="http://sodipodi.sourceforge.net/DTD/sodipodi-0.dtd"
 xmlns:inkscape="http://www.inkscape.org/namespaces/inkscape"
 inkscape:version="0.48.2 r9819"
 sodipodi:docname="GeoSym_Geysir.svg">
 <defs>
  <style type="text/css">
   <![CDATA[
    .str0 {stroke:black;stroke-width:5291.66}
    .fil0 {fill:none}
   ]]>
  </style>
 </defs>
 <g id="Capa_x0020_1">
  <metadata id="CorelCorpID_0Corel-Layer"/>
  <sodipodi:namedview id="base" pagecolor="#ffffff" bordercolor="#666666" borderopacity="1.0" inkscape:pageopacity="0.0" inkscape:pageshadow="2" inkscape:zoom="0.88013997" inkscape:cx="212.5" inkscape:cy="277.07486" inkscape:document-units="px" inkscape:current-layer="layer1" showgrid="false" inkscape:window-width="1366" inkscape:window-height="716" inkscape:window-x="-8" inkscape:window-y="-8" inkscape:window-maximized="1"/>
  <sodipodi:namedview id="base" pagecolor="#ffffff" bordercolor="#666666" borderopacity="1.0" inkscape:pageopacity="0.0" inkscape:pageshadow="2" inkscape:zoom="22.4" inkscape:cx="2.2669275" inkscape:cy="11.055256" inkscape:document-units="px" inkscape:current-layer="layer1" showgrid="false" inkscape:snap-bbox="true" inkscape:object-paths="true" inkscape:snap-global="true" inkscape:window-width="1310" inkscape:window-height="956" inkscape:window-x="101" inkscape:window-y="25" inkscape:window-maximized="0" fit-margin-top="0" fit-margin-left="0" fit-margin-right="0" fit-margin-bottom="0"/>
  <sodipodi:namedview id="base" pagecolor="#ffffff" bordercolor="#666666" borderopacity="1.0" inkscape:pageopacity="0.0" inkscape:pageshadow="2" inkscape:zoom="0.88013997" inkscape:cx="212.5" inkscape:cy="277.07486" inkscape:document-units="px" inkscape:current-layer="layer1" showgrid="false" inkscape:window-width="1366" inkscape:window-height="716" inkscape:window-x="-8" inkscape:window-y="-8" inkscape:window-maximized="1"/>
  <sodipodi:namedview id="base" pagecolor="#ffffff" bordercolor="#666666" borderopacity="1.0" inkscape:pageopacity="0.0" inkscape:pageshadow="2" inkscape:zoom="22.4" inkscape:cx="2.2669275" inkscape:cy="11.055256" inkscape:document-units="px" inkscape:current-layer="layer1" showgrid="false" inkscape:snap-bbox="true" inkscape:object-paths="true" inkscape:snap-global="true" inkscape:window-width="1310" inkscape:window-height="956" inkscape:window-x="101" inkscape:window-y="25" inkscape:window-maximized="0" fit-margin-top="0" fit-margin-left="0" fit-margin-right="0" fit-margin-bottom="0"/>
  <path class="fil0 str0" d="M21103 68201c88,879 176,1758 528,2330 351,571 967,835 2022,1142 1054,308 2549,660 3911,835 1363,176 2593,176 3560,44 967,-131 1671,-395 2286,-791 615,-395 1143,-923 1406,-1538 264,-615 264,-1319 264,-2022"/>
  <path class="fil0 str0" d="M36267 68088c88,879 176,1758 527,2330 352,571 967,835 2022,1142 1055,308 2549,660 3912,836 1362,175 2593,175 3560,43 967,-131 1670,-395 2285,-791 616,-395 1143,-923 1407,-1538 264,-615 264,-1319 264,-2022"/>
  <path class="fil0 str0" d="M51562 68201c88,879 176,1758 528,2330 351,571 967,835 2021,1142 1055,308 2550,660 3912,835 1363,176 2593,176 3560,44 967,-131 1670,-395 2286,-791 615,-395 1143,-923 1406,-1538 264,-615 264,-1319 264,-2022"/>
  <path class="fil0 str0" d="M66594 68088c88,879 176,1758 527,2330 352,571 967,835 2022,1142 1055,308 2549,660 3912,836 1362,175 2593,175 3560,43 967,-131 1670,-395 2285,-791 616,-395 1143,-923 1407,-1538 264,-615 264,-1319 264,-2022"/>
  <path class="fil0 str0" d="M26349 65522c-94,-11853 -188,-23707 -329,-30151 -141,-6444 -329,-7479 -800,-8325 -470,-847 -1223,-1505 -2022,-1929 -800,-423 -1647,-611 -2587,-941 -941,-329 -1976,-799 -2870,-846 -893,-47 -1646,329 -2398,705"/>
  <path class="fil0 str0" d="M43424 64325c-94,-11854 -189,-23707 -330,-30151 -141,-6444 -329,-7479 -799,-8326 -471,-846 -1223,-1505 -2023,-1928 -800,-424 -1646,-612 -2587,-941 -941,-329 -1975,-800 -2869,-847 -894,-47 -1646,330 -2399,706"/>
  <path class="fil0 str0" d="M59228 63760c-94,-11853 -188,-23707 -329,-30151 -141,-6444 -329,-7478 -800,-8325 -470,-847 -1223,-1505 -2022,-1929 -800,-423 -1647,-611 -2587,-940 -941,-330 -1976,-800 -2870,-847 -893,-47 -1646,329 -2399,705"/>
  <path class="fil0 str0" d="M74468 64042c-94,-11853 -188,-23706 -329,-30150 -141,-6444 -329,-7479 -800,-8326 -470,-847 -1223,-1505 -2022,-1928 -800,-424 -1647,-612 -2587,-941 -941,-329 -1976,-800 -2870,-847 -893,-47 -1646,329 -2399,706"/>
 </g>
</svg>
